<svg width="40" height="40" viewBox="0 0 40 40" fill="none" xmlns="http://www.w3.org/2000/svg">
    <path d="M38 20.0003C38.0001 16.2393 36.822 12.5727 34.6313 9.5155C32.4406 6.45833 29.3473 4.16417 25.7858 2.95523C22.2244 1.7463 18.3737 1.68332 14.7746 2.77516C11.1755 3.86699 8.00885 6.05878 5.71935 9.04268C3.42984 12.0266 2.13253 15.6527 2.00962 19.4117C1.8867 23.1708 2.94436 26.8739 5.03405 30.001C7.12373 33.1281 10.1405 35.5221 13.6605 36.8467C17.1806 38.1713 21.0272 38.36 24.66 37.3863" stroke="#222222" stroke-width="4" stroke-linecap="round"/>
    <path d="M20 28.0003C24.4183 28.0003 28 24.4186 28 20.0003C28 15.582 24.4183 12.0003 20 12.0003C15.5817 12.0003 12 15.582 12 20.0003C12 24.4186 15.5817 28.0003 20 28.0003Z" stroke="#222222" stroke-width="4"/>
    <path d="M28 14.0003V23.0003C28 24.3264 28.5268 25.5982 29.4645 26.5358C30.4021 27.4735 31.6739 28.0003 33 28.0003C34.3261 28.0003 35.5979 27.4735 36.5355 26.5358C37.4732 25.5982 38 24.3264 38 23.0003V20.0003" stroke="#222222" stroke-width="4" stroke-linecap="round"/>
</svg>
