<svg width="40" height="40" viewBox="0 0 40 40" fill="none" xmlns="http://www.w3.org/2000/svg">
    <path d="M20 0C8.95001 0 7.43591e-06 8.95 7.43591e-06 20C-0.00361384 24.1986 1.31552 28.2916 3.77011 31.698C6.22471 35.1043 9.69001 37.6509 13.674 38.976C14.674 39.15 15.05 38.55 15.05 38.024C15.05 37.55 15.024 35.976 15.024 34.3C10 35.226 8.70001 33.076 8.30001 31.95C8.07401 31.374 7.10001 29.6 6.25001 29.124C5.55001 28.75 4.55001 27.824 6.22401 27.8C7.80001 27.774 8.92401 29.25 9.30001 29.85C11.1 32.874 13.974 32.024 15.124 31.5C15.3 30.2 15.824 29.326 16.4 28.826C11.95 28.326 7.30001 26.6 7.30001 18.95C7.30001 16.774 8.07401 14.976 9.35001 13.576C9.15001 13.076 8.45001 11.026 9.55001 8.276C9.55001 8.276 11.224 7.75 15.05 10.324C16.6783 9.87329 18.3605 9.64653 20.05 9.65C21.75 9.65 23.45 9.874 25.05 10.324C28.876 7.724 30.55 8.276 30.55 8.276C31.65 11.026 30.95 13.076 30.75 13.576C32.024 14.976 32.8 16.75 32.8 18.95C32.8 26.626 28.126 28.326 23.676 28.826C24.4 29.45 25.026 30.65 25.026 32.526C25.026 35.2 25 37.35 25 38.026C25 38.55 25.376 39.174 26.376 38.974C30.345 37.6322 33.7937 35.0802 36.2371 31.6768C38.6805 28.2733 39.9958 24.1897 39.998 20C39.998 8.95 31.048 0 19.998 0" fill="#222222"/>
</svg>
