<svg width="40" height="40" viewBox="0 0 40 40" fill="none" xmlns="http://www.w3.org/2000/svg">
    <path d="M0 0V40H40V0H0ZM11.7062 6.66625H14.4275C16.465 6.66625 17.1625 6.71125 17.2075 6.855C17.24 6.96625 17.26 9.13375 17.26 11.6862L17.2475 16.3213L18.035 15.6175C19.135 14.6475 20.06 14.3088 21.8112 14.2438C22.9637 14.2113 23.4325 14.2563 24.24 14.5438C26.0113 15.1363 27.2612 16.3538 27.9125 18.15C28.1662 18.8538 28.1988 19.5887 28.245 25.2925L28.2975 31.6663H22.7312V26.465C22.7312 21.3413 22.7188 21.2762 22.3738 20.6512C21.885 19.825 21.3575 19.4462 20.525 19.3562C19.1063 19.2 18.1225 19.6813 17.5625 20.8413C17.295 21.375 17.2625 21.935 17.25 26.4337C17.23 29.1812 17.1975 31.4863 17.1975 31.545C17.185 31.6238 15.9475 31.6687 14.4438 31.6687H11.7163V19.1688L11.7062 6.66625Z" fill="#222222"/>
</svg>
